HIERARCHY
ROOT joint_Root
{
	OFFSET 0.0 0.0 0.0
	CHANNELS 6 Xposition Yposition Zposition Zrotation Xrotation Yrotation 
	JOINT Hips
	{
		OFFSET 4.5925 91.4895 -427.239
		CHANNELS 6 Xposition Yposition Zposition Zrotation Xrotation Yrotation 
		JOINT Spine
		{
			OFFSET 15.7357 0.0 0.0
			CHANNELS 6 Xposition Yposition Zposition Zrotation Xrotation Yrotation 
			JOINT Chest
			{
				OFFSET 8.98455 -0.406207 0.0
				CHANNELS 6 Xposition Yposition Zposition Zrotation Xrotation Yrotation 
				JOINT Neck
				{
					OFFSET 16.3773 0.0 0.0
					CHANNELS 6 Xposition Yposition Zposition Zrotation Xrotation Yrotation 
					JOINT Head
					{
						OFFSET 6.45672 0.0 0.0
						CHANNELS 6 Xposition Yposition Zposition Zrotation Xrotation Yrotation 
						End Site
						{
							OFFSET 0.0 0.0 0.0
						}
					}
				}
				JOINT Shoulder_L
				{
					OFFSET 12.9942 -0.242716 4.98039
					CHANNELS 6 Xposition Yposition Zposition Zrotation Xrotation Yrotation 
					JOINT UpperArm_L
					{
						OFFSET 5.34809 0.0 0.0
						CHANNELS 6 Xposition Yposition Zposition Zrotation Xrotation Yrotation 
						JOINT LowerArm_L
						{
							OFFSET 24.3286 1.87007e-05 0.0
							CHANNELS 6 Xposition Yposition Zposition Zrotation Xrotation Yrotation 
							JOINT Hand_L
							{
								OFFSET 22.2916 0.0 0.0
								CHANNELS 6 Xposition Yposition Zposition Zrotation Xrotation Yrotation 
								End Site
								{
									OFFSET 0.0 0.0 0.0
								}
							}
						}
					}
				}
				JOINT Shoulder_R
				{
					OFFSET 12.9945 -0.242716 -4.98039
					CHANNELS 6 Xposition Yposition Zposition Zrotation Xrotation Yrotation 
					JOINT UpperArm_R
					{
						OFFSET -5.34813 0.0 0.0
						CHANNELS 6 Xposition Yposition Zposition Zrotation Xrotation Yrotation 
						JOINT LowerArm_R
						{
							OFFSET -24.3289 0.000322201 0.0
							CHANNELS 6 Xposition Yposition Zposition Zrotation Xrotation Yrotation 
							JOINT Hand_R
							{
								OFFSET -22.2915 -0.000108084 0.0
								CHANNELS 6 Xposition Yposition Zposition Zrotation Xrotation Yrotation 
								End Site
								{
									OFFSET 0.0 0.0 0.0
								}
							}
						}
					}
				}
			}
		}
		JOINT UpperLeg_L
		{
			OFFSET -2.19248 -6.46944 0.0
			CHANNELS 6 Xposition Yposition Zposition Zrotation Xrotation Yrotation 
			JOINT LowerLeg_L
			{
				OFFSET 39.0811 0.0 -1.23785e-05
				CHANNELS 6 Xposition Yposition Zposition Zrotation Xrotation Yrotation 
				JOINT Foot_L
				{
					OFFSET 40.9854 0.0 -1.26872e-05
					CHANNELS 6 Xposition Yposition Zposition Zrotation Xrotation Yrotation 
					JOINT Toes_L
					{
						OFFSET 11.7543 0.0 0.0
						CHANNELS 6 Xposition Yposition Zposition Zrotation Xrotation Yrotation 
						End Site
						{
							OFFSET 0.0 0.0 0.0
						}
					}
				}
			}
		}
		JOINT UpperLeg_R
		{
			OFFSET -2.19251 6.46944 0.0
			CHANNELS 6 Xposition Yposition Zposition Zrotation Xrotation Yrotation 
			JOINT LowerLeg_R
			{
				OFFSET -39.0811 -0.00228153 -0.0401928
				CHANNELS 6 Xposition Yposition Zposition Zrotation Xrotation Yrotation 
				JOINT Foot_R
				{
					OFFSET -40.9854 0.0 0.0
					CHANNELS 6 Xposition Yposition Zposition Zrotation Xrotation Yrotation 
					JOINT Toes_R
					{
						OFFSET -11.7543 0.0 0.0
						CHANNELS 6 Xposition Yposition Zposition Zrotation Xrotation Yrotation 
						End Site
						{
							OFFSET 0.0 0.0 0.0
						}
					}
				}
			}
		}
	}
}
MOTION
Frames:	6
Frame Time:	0.0333333
0.000000 0.000000 0.000000 0.000000 0.000000 -0.000000 -1.305000 90.475400 4.370370 90.096300 -2.796380 8.035380 15.735700 0.000005 -0.000001 85.995800 83.024500 -86.079900 8.984550 -0.406207 -0.000000 6.150970 -0.970302 -0.115818 16.377300 -0.000001 -0.000001 7.426010 -4.068340 1.898810 6.456720 -0.000001 -0.000000 -2.449160 -4.173070 2.290810 12.994200 -0.242716 4.980390 -91.771800 5.997850 -73.508800 5.348090 -0.000007 -0.000001 -62.569100 33.101400 -13.586000 24.328600 0.000019 0.000005 5.788320 22.231000 -14.999000 22.291600 -0.000001 0.000005 7.296520 5.203920 2.620420 12.994500 -0.242716 -4.980390 88.201300 10.872300 -80.547600 -5.348130 -0.000001 -0.000004 -62.437200 28.005400 -7.879430 -24.328900 0.000322 -0.000009 0.947302 3.584190 -14.830900 -22.291500 -0.000108 -0.000004 12.964400 5.357590 -1.606670 -2.192480 -6.469440 -0.000000 -174.619000 -12.713300 1.868770 39.081100 -0.000007 -0.000012 -0.224319 0.398311 29.387600 40.985400 -0.000006 -0.000013 -1.000280 4.197900 -72.722800 11.754300 -0.000000 0.000003 -0.000188 -0.001755 -16.643900 -2.192510 6.469440 -0.000001 172.561000 22.400300 -176.315000 -39.081100 -0.002282 -0.040193 -0.209652 0.382934 29.079500 -40.985400 0.000008 0.000006 3.660400 13.118900 -74.007400 -11.754300 -0.000006 -0.000006 -0.001872 -0.027103 -17.675200
0.000000 0.000000 0.000000 0.000000 0.000000 -0.000000 -1.294830 90.467200 4.427020 90.138500 -2.836380 8.027830 15.735700 0.000005 -0.000001 86.110700 83.061100 -86.213200 8.984550 -0.406207 -0.000000 6.079630 -0.937241 -0.154941 16.377300 -0.000001 -0.000001 8.172140 -4.041430 2.049410 6.456720 -0.000001 -0.000000 -1.588850 -4.054490 2.061200 12.994200 -0.242716 4.980390 -91.848800 5.906480 -72.584400 5.348090 -0.000007 -0.000001 -62.320300 28.236600 -12.564500 24.328600 0.000019 0.000005 5.917770 22.715300 -15.025300 22.291600 -0.000001 0.000005 5.991930 5.215460 2.326490 12.994500 -0.242716 -4.980390 88.061500 10.558200 -79.534100 -5.348130 -0.000001 -0.000004 -61.604100 24.517600 -7.176740 -24.328900 0.000322 -0.000009 1.020840 3.797640 -15.073200 -22.291500 -0.000108 -0.000004 12.138800 5.365640 -1.854040 -2.192480 -6.469440 -0.000000 -174.656000 -12.742900 1.922230 39.081100 -0.000007 -0.000012 -0.226924 0.403413 29.358600 40.985400 -0.000006 -0.000013 -0.997233 4.201230 -72.754300 11.754300 -0.000000 0.000003 -0.000181 -0.001706 -16.642100 -2.192510 6.469440 -0.000001 172.502000 22.377100 -176.309000 -39.081100 -0.002282 -0.040193 -0.212353 0.387169 29.118500 -40.985400 0.000008 0.000006 3.701410 13.124000 -74.070500 -11.754300 -0.000006 -0.000006 -0.001861 -0.026964 -17.669500
0.000000 0.000000 0.000000 0.000000 0.000000 -0.000000 -1.308960 90.457300 4.473240 90.126300 -2.777050 8.081450 15.735700 0.000005 -0.000001 86.119900 83.106800 -86.233900 8.984550 -0.406207 -0.000000 5.988370 -0.928662 -0.179341 16.377300 -0.000001 -0.000001 9.072040 -4.043420 2.143040 6.456720 -0.000001 -0.000000 -0.496558 -4.056340 1.960700 12.994200 -0.242716 4.980390 -91.885600 5.731170 -71.753800 5.348090 -0.000007 -0.000001 -61.166800 23.503800 -12.280100 24.328600 0.000019 0.000005 6.464510 24.068000 -15.527100 22.291600 -0.000001 0.000005 3.990450 5.228580 1.990960 12.994500 -0.242716 -4.980390 87.930000 10.122300 -78.378700 -5.348130 -0.000001 -0.000004 -60.380100 20.603200 -6.995020 -24.328900 0.000322 -0.000009 0.944445 3.427500 -15.432100 -22.291500 -0.000108 -0.000004 11.414700 5.372300 -2.059480 -2.192480 -6.469440 -0.000000 -174.608000 -12.740900 1.996860 39.081100 -0.000007 -0.000012 -0.226255 0.401817 29.383300 40.985400 -0.000006 -0.000013 -0.996537 4.255810 -72.794600 11.754300 -0.000000 0.000003 -0.000186 -0.001740 -16.643300 -2.192510 6.469440 -0.000001 172.471000 22.381400 -176.192000 -39.081100 -0.002282 -0.040193 -0.214287 0.391007 29.095700 -40.985400 0.000008 0.000006 3.601410 13.157300 -74.076200 -11.754300 -0.000006 -0.000006 -0.001944 -0.028017 -17.712300
0.000000 0.000000 0.000000 0.000000 0.000000 -0.000000 -1.331050 90.453200 4.484110 90.123900 -2.668980 8.155790 15.735700 0.000005 -0.000001 85.963000 83.186300 -86.096100 8.984550 -0.406207 -0.000000 5.827010 -0.954686 -0.217464 16.377300 -0.000001 -0.000001 10.192200 -4.080740 2.167390 6.456720 -0.000001 -0.000000 0.736983 -4.087700 1.868900 12.994200 -0.242716 4.980390 -91.888700 5.504920 -71.029500 5.348090 -0.000007 -0.000001 -58.758600 20.151400 -12.879300 24.328600 0.000019 0.000005 6.864660 25.025900 -15.885500 22.291600 -0.000001 0.000005 2.108920 5.237650 1.755460 12.994500 -0.242716 -4.980390 87.829700 9.671760 -77.287900 -5.348130 -0.000001 -0.000004 -58.625600 16.227200 -7.276540 -24.328900 0.000322 -0.000009 0.822205 2.906410 -15.822500 -22.291500 -0.000108 -0.000004 10.688500 5.373450 -2.094290 -2.192480 -6.469440 -0.000000 -174.575000 -12.679100 2.063890 39.081100 -0.000007 -0.000012 -0.225704 0.400609 29.397300 40.985400 -0.000006 -0.000013 -1.000920 4.303360 -72.801400 11.754300 -0.000000 0.000003 -0.000191 -0.001785 -16.645000 -2.192510 6.469440 -0.000001 172.441000 22.474900 -176.075000 -39.081100 -0.002282 -0.040193 -0.212969 0.388646 29.095300 -40.985400 0.000008 0.000006 3.626280 13.096300 -74.105200 -11.754300 -0.000006 -0.000006 -0.001780 -0.025926 -17.627300
0.000000 0.000000 0.000000 0.000000 0.000000 -0.000000 -1.345940 90.438900 4.473570 90.158600 -2.558710 8.273520 15.735700 0.000005 -0.000001 85.492800 83.263100 -85.645000 8.984550 -0.406207 -0.000000 5.665430 -1.053450 -0.251869 16.377300 -0.000001 -0.000001 11.452400 -4.057540 2.108170 6.456720 -0.000001 -0.000000 1.934800 -4.037090 1.720330 12.994200 -0.242716 4.980390 -91.838200 5.220910 -70.572400 5.348090 -0.000007 -0.000001 -55.781200 16.605400 -13.915200 24.328600 0.000019 0.000005 7.282060 26.313400 -16.080700 22.291600 -0.000001 0.000005 0.995806 5.246650 1.521580 12.994500 -0.242716 -4.980390 87.820300 9.109510 -76.482000 -5.348130 -0.000001 -0.000004 -56.494500 11.210600 -8.192610 -24.328900 0.000322 -0.000009 0.731627 2.560650 -15.973700 -22.291500 -0.000108 -0.000004 10.266000 5.368790 -1.948830 -2.192480 -6.469440 -0.000000 -174.570000 -12.620800 2.132510 39.081100 -0.000007 -0.000012 -0.225717 0.399585 29.461500 40.985400 -0.000006 -0.000013 -0.981438 4.402400 -72.819500 11.754300 -0.000000 0.000003 -0.000176 -0.001663 -16.640500 -2.192510 6.469440 -0.000001 172.346000 22.505800 -175.966000 -39.081100 -0.002282 -0.040193 -0.220735 0.401463 29.164300 -40.985400 0.000008 0.000006 3.527190 13.065000 -74.122900 -11.754300 -0.000006 -0.000006 -0.001993 -0.028627 -17.737200
0.000000 0.000000 0.000000 0.000000 0.000000 -0.000000 -1.358550 90.435500 4.440940 90.204700 -2.479800 8.445610 15.735700 0.000005 -0.000001 84.956600 83.297400 -85.127900 8.984550 -0.406207 -0.000000 5.586520 -1.172400 -0.284985 16.377300 -0.000001 -0.000001 12.565400 -4.017230 2.038950 6.456720 -0.000001 -0.000000 3.105180 -3.969510 1.490010 12.994200 -0.242716 4.980390 -91.718800 4.782720 -70.206200 5.348090 -0.000007 -0.000001 -52.852100 11.870600 -15.296800 24.328600 0.000019 0.000005 7.466110 27.220200 -15.987200 22.291600 -0.000001 0.000005 0.755489 5.246240 1.531480 12.994500 -0.242716 -4.980390 87.857800 8.494940 -75.790300 -5.348130 -0.000001 -0.000004 -54.000900 6.006790 -9.799210 -24.328900 0.000322 -0.000009 0.700671 2.430010 -16.113800 -22.291500 -0.000108 -0.000004 9.960780 5.356220 -1.564370 -2.192480 -6.469440 -0.000000 -174.561000 -12.652700 2.268590 39.081100 -0.000007 -0.000012 -0.225070 0.398154 29.479100 40.985400 -0.000006 -0.000013 -0.957207 4.492900 -72.796400 11.754300 -0.000000 0.000003 -0.000184 -0.001723 -16.642700 -2.192510 6.469440 -0.000001 172.255000 22.469900 -175.827000 -39.081100 -0.002282 -0.040193 -0.222169 0.403023 29.225300 -40.985400 0.000008 0.000006 3.565980 13.014300 -74.154000 -11.754300 -0.000006 -0.000006 -0.001719 -0.025139 -17.595300
